<svg width="24" height="24" viewBox="0 0 24 24" fill="none" xmlns="http://www.w3.org/2000/svg">
<path d="M12.0179 7.875C9.73214 7.875 7.91071 9.73214 7.91071 11.9821C7.91071 14.2679 9.73214 16.0893 12.0179 16.0893C14.2679 16.0893 16.125 14.2679 16.125 11.9821C16.125 9.73214 14.2679 7.875 12.0179 7.875ZM12.0179 14.6607C10.5536 14.6607 9.33929 13.4821 9.33929 11.9821C9.33929 10.5179 10.5179 9.33929 12.0179 9.33929C13.4821 9.33929 14.6607 10.5179 14.6607 11.9821C14.6607 13.4821 13.4821 14.6607 12.0179 14.6607ZM17.2321 7.73214C17.2321 7.19643 16.8036 6.76786 16.2679 6.76786C15.7321 6.76786 15.3036 7.19643 15.3036 7.73214C15.3036 8.26786 15.7321 8.69643 16.2679 8.69643C16.8036 8.69643 17.2321 8.26786 17.2321 7.73214ZM19.9464 8.69643C19.875 7.41071 19.5893 6.26786 18.6607 5.33929C17.7321 4.41071 16.5893 4.125 15.3036 4.05357C13.9821 3.98214 10.0179 3.98214 8.69643 4.05357C7.41071 4.125 6.30357 4.41071 5.33929 5.33929C4.41071 6.26786 4.125 7.41071 4.05357 8.69643C3.98214 10.0179 3.98214 13.9821 4.05357 15.3036C4.125 16.5893 4.41071 17.6964 5.33929 18.6607C6.30357 19.5893 7.41071 19.875 8.69643 19.9464C10.0179 20.0179 13.9821 20.0179 15.3036 19.9464C16.5893 19.875 17.7321 19.5893 18.6607 18.6607C19.5893 17.6964 19.875 16.5893 19.9464 15.3036C20.0179 13.9821 20.0179 10.0179 19.9464 8.69643ZM18.2321 16.6964C17.9821 17.4107 17.4107 17.9464 16.7321 18.2321C15.6607 18.6607 13.1607 18.5536 12.0179 18.5536C10.8393 18.5536 8.33929 18.6607 7.30357 18.2321C6.58929 17.9464 6.05357 17.4107 5.76786 16.6964C5.33929 15.6607 5.44643 13.1607 5.44643 11.9821C5.44643 10.8393 5.33929 8.33929 5.76786 7.26786C6.05357 6.58929 6.58929 6.05357 7.30357 5.76786C8.33929 5.33929 10.8393 5.44643 12.0179 5.44643C13.1607 5.44643 15.6607 5.33929 16.7321 5.76786C17.4107 6.01786 17.9464 6.58929 18.2321 7.26786C18.6607 8.33929 18.5536 10.8393 18.5536 11.9821C18.5536 13.1607 18.6607 15.6607 18.2321 16.6964Z" fill="#8500D7"/>
</svg>
