<svg width="16" height="14" viewBox="0 0 16 14" fill="none" xmlns="http://www.w3.org/2000/svg">
<path d="M14.3718 3.72798C14.998 3.25831 15.5616 2.69471 16 2.03718C15.4364 2.28767 14.7789 2.47553 14.1213 2.53815C14.8102 2.13111 15.3112 1.50489 15.5616 0.722108C14.9354 1.09784 14.2153 1.37964 13.4951 1.5362C12.8689 0.878664 12.0235 0.50293 11.0841 0.50293C9.2681 0.50293 7.79648 1.97455 7.79648 3.7906C7.79648 4.04109 7.82779 4.29158 7.89041 4.54207C5.16634 4.38551 2.72407 3.07044 1.09589 1.09784C0.81409 1.56751 0.657534 2.13111 0.657534 2.75733C0.657534 3.88453 1.22114 4.88649 2.12916 5.4814C1.59687 5.45009 1.06458 5.32485 0.626223 5.07436V5.10567C0.626223 6.70254 1.75342 8.01761 3.25636 8.33072C3.00587 8.39334 2.69276 8.45596 2.41096 8.45596C2.19178 8.45596 2.00391 8.42465 1.78474 8.39334C2.19178 9.70841 3.41292 10.6477 4.85323 10.6791C3.72603 11.5558 2.31703 12.0881 0.782779 12.0881C0.500978 12.0881 0.250489 12.0567 0 12.0254C1.44031 12.9648 3.16243 13.4971 5.0411 13.4971C11.0841 13.4971 14.3718 8.51859 14.3718 4.16633C14.3718 4.00978 14.3718 3.88453 14.3718 3.72798Z" fill="#8500D7"/>
</svg>
