<svg width="24" height="24" viewBox="0 0 24 24" fill="none" xmlns="http://www.w3.org/2000/svg">
<path d="M18.3718 8.72798C18.998 8.25831 19.5616 7.69471 20 7.03718C19.4364 7.28767 18.7789 7.47553 18.1213 7.53815C18.8102 7.13111 19.3112 6.50489 19.5616 5.72211C18.9354 6.09784 18.2153 6.37964 17.4951 6.5362C16.8689 5.87866 16.0235 5.50293 15.0841 5.50293C13.2681 5.50293 11.7965 6.97455 11.7965 8.7906C11.7965 9.04109 11.8278 9.29158 11.8904 9.54207C9.16634 9.38551 6.72407 8.07044 5.09589 6.09784C4.81409 6.56751 4.65753 7.13111 4.65753 7.75733C4.65753 8.88453 5.22114 9.88649 6.12916 10.4814C5.59687 10.4501 5.06458 10.3248 4.62622 10.0744V10.1057C4.62622 11.7025 5.75342 13.0176 7.25636 13.3307C7.00587 13.3933 6.69276 13.456 6.41096 13.456C6.19178 13.456 6.00391 13.4247 5.78474 13.3933C6.19178 14.7084 7.41292 15.6477 8.85323 15.6791C7.72603 16.5558 6.31703 17.0881 4.78278 17.0881C4.50098 17.0881 4.25049 17.0567 4 17.0254C5.44031 17.9648 7.16243 18.4971 9.0411 18.4971C15.0841 18.4971 18.3718 13.5186 18.3718 9.16633C18.3718 9.00978 18.3718 8.88453 18.3718 8.72798Z" fill="#8500D7"/>
</svg>
